<?xml version="1.0" encoding="UTF-8" standalone="no"?>
<svg width="34px" height="39px" viewBox="0 0 34 39" version="1.1" xmlns="http://www.w3.org/2000/svg" xmlns:xlink="http://www.w3.org/1999/xlink">
    <!-- Generator: Sketch 3.7.2 (28276) - http://www.bohemiancoding.com/sketch -->
    <title>Logo</title>
    <desc>Created with Sketch.</desc>
    <defs></defs>
    <g id="Page-1" stroke="none" stroke-width="1" fill="none" fill-rule="evenodd">
        <g id="Logo">
            <path d="M25.4716557,14.589931 C28.8679952,16.5506684 30.566165,17.5312308 33.9621172,19.4919682 L33.9621172,11.0797347 C33.9621172,10.2203873 33.5024302,9.42261538 32.7581013,8.99274801 C30.1138361,7.46575066 28.4420005,6.50067905 25.4716557,4.78585676 L25.4716557,14.589931 Z" id="Fill-1" fill="#4E637B"></path>
            <g id="Group-5" transform="translate(8.000000, 29.000000)" fill="#4E637B">
                <path d="M7.77582281,9.40408011 C8.52015172,9.83394748 9.4410748,9.83472202 10.1854037,9.40485464 C12.829669,7.87824456 14.5015045,6.91317294 17.4718493,5.1979634 C14.0758971,3.23722599 12.3777273,2.25666366 8.9813878,0.29592626 C5.58466101,2.25705093 3.88649125,3.23761326 0.490538992,5.1979634 C3.46049655,6.91278568 5.1323321,7.87785729 7.77582281,9.40408011" id="Fill-3"></path>
            </g>
            <path d="M24.2679109,25.0889188 C25.0126271,24.6586642 25.4715395,23.8639905 25.4715395,23.0038684 L25.4715395,14.5900859 L16.981078,19.4921231 L16.981078,29.2958101 L24.2679109,25.0889188 Z" id="Fill-6" fill="#C8ED1E"></path>
            <path d="M18.1848228,10.3830398 C17.4401066,9.95317241 16.5222817,9.95317241 15.7771782,10.3830398 L8.49073263,14.5903183 L16.9811942,19.4919682 L25.4716557,14.589931 L18.1848228,10.3830398 Z" id="Fill-8" fill="#F9FAF8"></path>
            <path d="M8.49092626,23.0042944 C8.49092626,23.8644164 8.94983873,24.6590902 9.69494218,25.0893448 L16.9817751,29.2958488 L16.9813878,19.4921618 L8.49053899,14.5905119 L8.49092626,23.0042944 Z" id="Fill-10" fill="#88B2D7"></path>
            <g id="Group-14" transform="translate(0.000000, 4.000000)" fill="#4E637B">
                <path d="M8.49042281,10.589931 C5.09408329,12.5506684 3.39591353,13.5312308 -3.87267905e-05,15.4919682 L-3.87267905e-05,7.07973475 C-3.87267905e-05,6.22038727 0.459648276,5.42261538 1.20397719,4.99274801 C3.84824244,3.46575066 5.52007798,2.50067905 8.49042281,0.785856764 L8.49042281,10.589931 Z" id="Fill-12"></path>
            </g>
            <path d="M33.9622334,27.9059443 L33.9622334,19.4917745 L25.4717719,14.5901247 L25.4717719,23.0039072 C25.4717719,23.4341618 25.3571406,23.8477639 25.1491777,24.2075358 L33.6396393,29.1099602 C33.8476021,28.7498011 33.9622334,28.3361989 33.9622334,27.9059443" id="Fill-15" fill="#5E9E2D"></path>
            <path d="M25.1491003,24.2077294 C24.9411374,24.5678886 24.6402302,24.8738302 24.2680658,25.0887639 L16.9812329,29.2960424 L25.4716944,34.1980796 L32.7585273,29.9908011 C33.1306918,29.7758674 33.4319862,29.4699257 33.6395618,29.1097666 L25.1491003,24.2077294 Z" id="Fill-17" fill="#6FBF2C"></path>
            <path d="M16.9812716,10.0605618 C17.3968101,10.0605618 17.8127358,10.1682223 18.1849003,10.383156 L25.4717332,14.5900472 L25.4717332,4.78597294 L18.1849003,0.579081698 C17.8127358,0.364148011 17.3968101,0.256487533 16.9812716,0.256487533 L16.9812716,10.0605618 Z" id="Fill-19" fill="#BDD2E1"></path>
            <path d="M1.20405464,29.990956 L8.49088753,34.1978472 L16.9813491,29.2958101 L9.69451618,25.0889188 C9.32235172,24.8739851 9.02105729,24.5676562 8.8134817,24.2074971 L0.322632891,29.1095342 C0.530595756,29.4696934 0.831502918,29.7760223 1.20405464,29.990956" id="Fill-21" fill="#418EDA"></path>
            <path d="M8.81336552,24.207652 C8.60540265,23.8474928 8.49077135,23.4338907 8.49077135,23.0040233 L8.49077135,14.5898536 L0.000309814324,19.4918907 L0.000309814324,27.9060605 C0.000309814324,28.3359279 0.114941114,28.74953 0.322903979,29.1096891 L8.81336552,24.207652 Z" id="Fill-23" fill="#3570AA"></path>
            <path d="M15.7774493,0.579042971 L8.49100371,4.78632149 L8.49061645,14.5900085 L15.7774493,10.3831172 C16.1500011,10.1681836 16.5655395,10.0605231 16.981078,10.0605231 L16.9814653,0.256448806 C16.5655395,0.256448806 16.1500011,0.364109284 15.7774493,0.579042971" id="Fill-25" fill="#A7BAC8"></path>
        </g>
    </g>
</svg>